<svg width="28" height="32" viewBox="0 0 28 32" fill="none" xmlns="http://www.w3.org/2000/svg">
<path fill-rule="evenodd" clip-rule="evenodd" d="M26.3048 25.406H4.50741C3.24049 25.406 2.20404 26.3897 2.13033 27.6249C2.13116 27.7007 2.13242 27.7577 2.13325 27.7944C2.13351 27.8083 2.13207 27.8216 2.13063 27.835C2.12971 27.8435 2.12879 27.852 2.12831 27.8607C2.17972 29.1158 3.22586 30.1223 4.50741 30.1223H25.6689V27.8163C25.6689 27.3561 26.047 26.9821 26.5123 26.9821C26.9775 26.9821 27.3556 27.356 27.3556 27.8163V30.9564C27.3556 31.4171 26.9776 31.7906 26.5123 31.7906H4.37984C4.3356 31.7906 4.2938 31.7845 4.25117 31.778C2.12594 31.6459 0.436343 29.8986 0.436343 27.7641C0.436343 27.7359 0.438341 27.7082 0.440337 27.6805C0.441799 27.6602 0.44326 27.6399 0.443937 27.6195C0.41823 25.1425 0.443937 6.30077 0.446863 4.25024C0.445889 4.24067 0.444582 4.23115 0.443272 4.22161C0.440649 4.20252 0.438016 4.18334 0.438016 4.16348C0.438016 1.94371 2.26388 0.137207 4.50859 0.137207H5.85618H26.3064H26.5123C26.9776 0.137207 27.3557 0.510925 27.3557 0.971406V24.5487C27.3557 25.0093 26.9776 25.3828 26.5123 25.3828C26.5074 25.3828 26.5033 25.382 26.4983 25.382C26.4362 25.3967 26.3715 25.406 26.3048 25.406ZM20.0009 12.4475C19.9384 13.4528 19.6165 14.4688 19.1311 15.2721C19.1192 15.2923 19.1059 15.3101 19.0915 15.3268C18.9545 15.5478 18.8116 15.7593 18.6506 15.9399C18.4308 16.1859 18.0512 16.2121 17.8037 15.9934C17.5538 15.7771 17.5298 15.4016 17.7496 15.1557C17.813 15.0841 17.8695 14.999 17.9258 14.9142C17.9443 14.8864 17.9628 14.8586 17.9815 14.8312C17.5755 12.8028 16.0991 11.9342 15.1969 11.5931V18.5185C15.1969 19.8292 13.849 20.8951 12.1937 20.8951C10.5383 20.8951 9.19043 19.8292 9.19043 18.5185C9.19043 17.2078 10.5383 16.1419 12.1937 16.1419C12.8724 16.1419 13.4923 16.3273 13.9956 16.6291V6.04139C13.9956 5.72887 14.2395 5.47101 14.5542 5.44962C14.8641 5.43179 15.1476 5.65163 15.1909 5.96059C15.2341 6.26598 15.5068 6.6296 15.7483 6.95044L15.8216 7.04788C16.2296 7.59393 16.8066 7.97634 17.4174 8.38108L17.4193 8.38234L17.4196 8.38258C18.2388 8.92556 19.0868 9.48761 19.5804 10.488C19.8952 11.1249 20.0405 11.8023 20.0009 12.4475Z" fill="#00A7E1"/>
</svg>
