<svg width="33" height="33" viewBox="0 0 33 33" fill="none" xmlns="http://www.w3.org/2000/svg">
<g clip-path="url(#clip0_485:11032)">
<path d="M16.3106 16.1074C13.9499 16.1074 12.0361 18.0211 12.0361 20.3819C12.0361 22.7427 13.9499 24.6564 16.3106 24.6564C18.6714 24.6564 20.5854 22.7427 20.5854 20.3819C20.5829 18.022 18.6706 16.11 16.3106 16.1074Z" fill="#FF639B"/>
<path d="M12.8225 24.908V32.9738L15.8414 30.3905C16.1116 30.1595 16.5098 30.1595 16.78 30.3905L19.7991 32.9738V24.908C17.7449 26.4973 14.8765 26.4973 12.8223 24.908H12.8225Z" fill="#FF639B"/>
<path d="M19.9637 5.8421V0.973877H6.2859C5.48882 0.974723 4.84264 1.6209 4.8418 2.41798V27.2764C4.84264 28.0734 5.48882 28.7193 6.2859 28.7205H11.3784V23.2695C9.96894 20.8673 10.4953 17.7989 12.6247 16.0036C14.7542 14.2083 17.8672 14.2083 19.9967 16.0036C22.1262 17.7989 22.6525 20.8673 21.2431 23.2695V28.7205H26.3356C27.1327 28.7193 27.7788 28.0734 27.7797 27.2764V8.00826H22.1299C20.934 8.00685 19.9652 7.03772 19.9637 5.8421Z" fill="#FF639B"/>
<path d="M22.1303 6.56418H26.5985L21.4082 1.86914V5.84213C21.4088 6.24067 21.7317 6.56362 22.1303 6.56418Z" fill="#FF639B"/>
</g>
<defs>
<clipPath id="clip0_485:11032">
<rect width="31.9999" height="31.9999" fill="white" transform="translate(0.280273 0.973877)"/>
</clipPath>
</defs>
</svg>
