<svg width="33" height="33" viewBox="0 0 33 33" fill="none" xmlns="http://www.w3.org/2000/svg">
<path fill-rule="evenodd" clip-rule="evenodd" d="M31.7555 16.5174C31.7555 15.5256 32.0473 14.5096 32.3299 13.5276L32.3321 13.5198C32.7123 12.1947 33.0714 10.943 32.6651 9.96455C32.2356 8.9278 31.0654 8.28747 29.8254 7.60899L29.8244 7.60842C28.9537 7.13224 28.0528 6.63906 27.3882 5.97439C26.7227 5.30946 26.2295 4.40831 25.7536 3.53737L25.7509 3.53251C25.0732 2.29504 24.4334 1.12675 23.3977 0.697235C22.4185 0.291078 21.1672 0.650098 19.8419 1.03034L19.8347 1.0324C18.8529 1.31525 17.8367 1.60674 16.8449 1.60674C15.8532 1.60674 14.8372 1.31525 13.8551 1.0324L13.8437 1.02912C12.521 0.649323 11.2702 0.290168 10.2923 0.697235C9.25533 1.12665 8.615 2.29691 7.93652 3.53687L7.93595 3.53791C7.45976 4.40885 6.96686 5.30946 6.30192 5.97439C5.63699 6.6396 4.73584 7.13277 3.8649 7.60896L3.8588 7.61231C2.62178 8.28975 1.45414 8.92921 1.02477 9.96455C0.618742 10.9442 0.978353 12.1976 1.35902 13.5244L1.35993 13.5276C1.64386 14.5102 1.93535 15.5256 1.93535 16.5174C1.93535 17.5091 1.64386 18.5254 1.36101 19.5072L1.35921 19.5135C0.978869 20.8391 0.619599 22.0914 1.02585 23.0702C1.45561 24.1072 2.62595 24.7475 3.86617 25.4262L3.86652 25.4264C4.73746 25.9025 5.63806 26.3957 6.303 27.0604C6.96848 27.7253 7.46165 28.6267 7.93757 29.4974L7.94023 29.5023C8.61793 30.7397 9.25774 31.908 10.2934 32.3375C11.2704 32.7435 12.5151 32.3868 13.8345 32.0086L13.8562 32.0024C14.8382 31.7195 15.8542 31.428 16.846 31.428C17.8377 31.428 18.854 31.7195 19.8358 32.0024L19.8536 32.0075C21.1739 32.3861 22.422 32.7439 23.3988 32.3375C24.4359 31.908 25.0765 30.7372 25.7552 29.4969C26.2311 28.6262 26.7243 27.7253 27.3892 27.0604C28.0539 26.3952 28.9553 25.902 29.8263 25.4258L29.833 25.4221C31.0695 24.7448 32.2368 24.1054 32.6661 23.0702C33.0723 22.091 32.7128 20.8381 32.3323 19.5119L32.331 19.5072C32.0473 18.5254 31.7555 17.5091 31.7555 16.5174ZM16.8454 28.1141C10.4512 28.1141 5.2487 22.9117 5.2487 16.5174C5.2487 14.2322 5.91634 12.0184 7.17988 10.115L8.09989 10.7252C6.95742 12.4474 6.35315 14.4503 6.35315 16.5174C6.35315 22.3031 11.0597 27.0097 16.8454 27.0097C18.9125 27.0097 20.9154 26.4057 22.6374 25.2629L23.2475 26.183C21.3444 27.4465 19.1307 28.1141 16.8454 28.1141ZM26.511 22.92L25.591 22.3098C26.7337 20.5874 27.3377 18.5845 27.3377 16.5174C27.3377 10.7317 22.6311 6.02509 16.8454 6.02509C14.7786 6.02509 12.7755 6.62935 11.0538 7.77183L10.4436 6.85181C12.3465 5.58827 14.561 4.92063 16.846 4.92063C23.2403 4.92063 28.4427 10.1231 28.4427 16.5174C28.4422 18.8026 27.7746 21.0169 26.511 22.92ZM17.2646 17.3749H18.967L21.4758 21.3173H22.9734L20.0166 16.6837L22.7558 12.3573H21.3862L18.9798 16.2485H17.2646V12.3573H16.0102V16.2485H14.2694L11.8758 12.3573H10.5062L13.2454 16.6581L10.2886 21.3173H11.7862L14.295 17.3749H16.0102V21.3173H17.2646V17.3749Z" fill="#F3A712"/>
</svg>
